<?xml version="1.0" encoding="utf-8"?>
<svg version="1.1" xmlns:xlink="http://www.w3.org/1999/xlink" width="216px" height="32px" xmlns="http://www.w3.org/2000/svg">
  <defs>
    <mask fill="white" id="clip33">
      <path d="M 0 28  L 0 4  C 0 1.76000000000001  2.96999999999998 0  6.75 0  L 209.25 0  C 213.03 0  216 1.76000000000001  216 4  L 216 28  C 216 30.24  213.03 32  209.25 32  L 171.255681818182 32  L 6.75 32  C 2.96999999999998 32  0 30.24  0 28  Z " fill-rule="evenodd" />
    </mask>
  </defs>
  <g transform="matrix(1 0 0 1 -1147 -1078 )">
    <path d="M 0 28  L 0 4  C 0 1.76000000000001  2.96999999999998 0  6.75 0  L 209.25 0  C 213.03 0  216 1.76000000000001  216 4  L 216 28  C 216 30.24  213.03 32  209.25 32  L 171.255681818182 32  L 6.75 32  C 2.96999999999998 32  0 30.24  0 28  Z " fill-rule="nonzero" fill="#f2f2f2" stroke="none" transform="matrix(1 0 0 1 1147 1078 )" />
    <path d="M 0 28  L 0 4  C 0 1.76000000000001  2.96999999999998 0  6.75 0  L 209.25 0  C 213.03 0  216 1.76000000000001  216 4  L 216 28  C 216 30.24  213.03 32  209.25 32  L 171.255681818182 32  L 6.75 32  C 2.96999999999998 32  0 30.24  0 28  Z " stroke-width="2" stroke="#d9d9d9" fill="none" transform="matrix(1 0 0 1 1147 1078 )" mask="url(#clip33)" />
  </g>
</svg>