<?xml version="1.0" encoding="utf-8"?>
<svg version="1.1" xmlns:xlink="http://www.w3.org/1999/xlink" width="1368px" height="32px" xmlns="http://www.w3.org/2000/svg">
  <g transform="matrix(1 0 0 1 -409 -1136 )">
    <path d="M 410 1140  A 3 3 0 0 1 413 1137 L 1773 1137  A 3 3 0 0 1 1776 1140 L 1776 1164  A 3 3 0 0 1 1773 1167 L 413 1167  A 3 3 0 0 1 410 1164 L 410 1140  Z " fill-rule="nonzero" fill="#ffffff" stroke="none" />
    <path d="M 409.5 1140  A 3.5 3.5 0 0 1 413 1136.5 L 1773 1136.5  A 3.5 3.5 0 0 1 1776.5 1140 L 1776.5 1164  A 3.5 3.5 0 0 1 1773 1167.5 L 413 1167.5  A 3.5 3.5 0 0 1 409.5 1164 L 409.5 1140  Z " stroke-width="1" stroke-dasharray="9,4" stroke="#d9d9d9" fill="none" stroke-dashoffset="0.5" />
  </g>
</svg>