<?xml version="1.0" encoding="utf-8"?>
<svg version="1.1" xmlns:xlink="http://www.w3.org/1999/xlink" width="18px" height="20px" xmlns="http://www.w3.org/2000/svg">
  <g transform="matrix(1 0 0 1 -1787 -78 )">
    <path d="M 17.056640625 6.64663461538462  C 17.685546875 7.93669871794872  18 9.31089743589743  18 10.7692307692308  C 18 12.0192307692308  17.76171875 13.213141025641  17.28515625 14.3509615384615  C 16.80859375 15.4887820512821  16.16796875 16.4703525641026  15.36328125 17.2956730769231  C 14.55859375 18.1209935897436  13.6015625 18.7780448717949  12.4921875 19.2668269230769  C 11.3828125 19.755608974359  10.21875 20  9 20  C 7.78125 20  6.6171875 19.755608974359  5.5078125 19.2668269230769  C 4.3984375 18.7780448717949  3.44140625 18.1209935897436  2.63671875 17.2956730769231  C 1.83203125 16.4703525641026  1.19140625 15.4887820512821  0.71484375 14.3509615384615  C 0.23828125 13.213141025641  0 12.0192307692308  0 10.7692307692308  C 0 9.31089743589743  0.314453125 7.93669871794872  0.943359375 6.64663461538462  C 1.572265625 5.35657051282051  2.45703125 4.27483974358974  3.59765625 3.40144230769231  C 3.93359375 3.14503205128205  4.306640625 3.04487179487179  4.716796875 3.10096153846154  C 5.126953125 3.15705128205128  5.453125 3.35737179487179  5.6953125 3.70192307692308  C 5.9453125 4.03846153846154  6.041015625 4.41706730769231  5.982421875 4.83774038461539  C 5.923828125 5.25841346153846  5.73046875 5.59695512820513  5.40234375 5.85336538461539  C 4.63671875 6.4463141025641  4.044921875 7.17147435897436  3.626953125 8.02884615384615  C 3.208984375 8.88621794871795  3 9.79967948717949  3 10.7692307692308  C 3 11.6025641025641  3.158203125 12.3978365384615  3.474609375 13.1550480769231  C 3.791015625 13.9122596153846  4.21875 14.5673076923077  4.7578125 15.1201923076923  C 5.296875 15.6730769230769  5.935546875 16.1117788461538  6.673828125 16.4362980769231  C 7.412109375 16.7608173076923  8.1875 16.9230769230769  9 16.9230769230769  C 9.8125 16.9230769230769  10.587890625 16.7608173076923  11.326171875 16.4362980769231  C 12.064453125 16.1117788461538  12.703125 15.6730769230769  13.2421875 15.1201923076923  C 13.78125 14.5673076923077  14.208984375 13.9122596153846  14.525390625 13.1550480769231  C 14.841796875 12.3978365384615  15 11.6025641025641  15 10.7692307692308  C 15 9.79967948717949  14.791015625 8.88621794871795  14.373046875 8.02884615384615  C 13.955078125 7.17147435897436  13.36328125 6.4463141025641  12.59765625 5.85336538461539  C 12.26953125 5.59695512820513  12.076171875 5.25841346153846  12.017578125 4.83774038461539  C 11.958984375 4.41706730769231  12.0546875 4.03846153846154  12.3046875 3.70192307692308  C 12.546875 3.35737179487179  12.875 3.15705128205128  13.2890625 3.10096153846154  C 13.703125 3.04487179487179  14.07421875 3.14503205128205  14.40234375 3.40144230769231  C 15.54296875 4.27483974358974  16.427734375 5.35657051282051  17.056640625 6.64663461538462  Z M 10.0546875 0.456730769230769  C 10.3515625 0.761217948717947  10.5 1.12179487179487  10.5 1.53846153846154  L 10.5 9.23076923076923  C 10.5 9.6474358974359  10.3515625 10.0080128205128  10.0546875 10.3125  C 9.7578125 10.6169871794872  9.40625 10.7692307692308  9 10.7692307692308  C 8.59375 10.7692307692308  8.2421875 10.6169871794872  7.9453125 10.3125  C 7.6484375 10.0080128205128  7.5 9.6474358974359  7.5 9.23076923076923  L 7.5 1.53846153846154  C 7.5 1.12179487179487  7.6484375 0.761217948717947  7.9453125 0.456730769230769  C 8.2421875 0.15224358974359  8.59375 0  9 0  C 9.40625 0  9.7578125 0.15224358974359  10.0546875 0.456730769230769  Z " fill-rule="nonzero" fill="#ffffff" stroke="none" transform="matrix(1 0 0 1 1787 78 )" />
  </g>
</svg>