<?xml version="1.0" encoding="utf-8"?>
<svg version="1.1" xmlns:xlink="http://www.w3.org/1999/xlink" width="20px" height="20px" xmlns="http://www.w3.org/2000/svg">
  <g transform="matrix(1 0 0 1 -32 -160 )">
    <path d="M 17.9427083333333 15.5338541666667  C 18.046875 15.4296875  18.1423611111111 15.2517361111111  18.2291666666667 15  L 15 15  L 15 18.2291666666667  C 15.2517361111111 18.1423611111111  15.4296875 18.046875  15.5338541666667 17.9427083333333  L 17.9427083333333 15.5338541666667  Z M 13.6979166666667 13.6979166666667  C 13.9409722222222 13.4548611111111  14.2361111111111 13.3333333333333  14.5833333333333 13.3333333333333  L 18 13.3333333333333  L 18 2  L 2 2  L 2 18  L 13.3333333333333 18  L 13.3333333333333 14.5833333333333  C 13.3333333333333 14.2361111111111  13.4548611111111 13.9409722222222  13.6979166666667 13.6979166666667  Z M 19.6354166666667 0.364583333333333  C 19.8784722222222 0.607638888888886  20 0.902777777777777  20 1.25  L 20 14.5833333333333  C 20 14.9305555555556  19.9131944444444 15.3125  19.7395833333333 15.7291666666667  C 19.5659722222222 16.1458333333333  19.3576388888889 16.4756944444444  19.1145833333333 16.71875  L 16.71875 19.1145833333333  C 16.4756944444444 19.3576388888889  16.1458333333333 19.5659722222222  15.7291666666667 19.7395833333333  C 15.3125 19.9131944444444  14.9305555555556 20  14.5833333333333 20  L 1.25 20  C 0.902777777777778 20  0.607638888888889 19.8784722222222  0.364583333333333 19.6354166666667  C 0.121527777777778 19.3923611111111  0 19.0972222222222  0 18.75  L 0 1.25  C 0 0.902777777777777  0.121527777777778 0.607638888888886  0.364583333333333 0.364583333333333  C 0.607638888888889 0.121527777777777  0.902777777777778 0  1.25 0  L 18.75 0  C 19.0972222222222 0  19.3923611111111 0.121527777777777  19.6354166666667 0.364583333333333  Z " fill-rule="nonzero" fill="#ffffff" stroke="none" transform="matrix(1 0 0 1 32 160 )" />
  </g>
</svg>