<?xml version="1.0" encoding="utf-8"?>
<svg version="1.1" xmlns:xlink="http://www.w3.org/1999/xlink" width="30px" height="20px" xmlns="http://www.w3.org/2000/svg">
  <g transform="matrix(1 0 0 1 -27 -110 )">
    <path d="M 23.5 16  L 6.5 16  C 5.8125 16  5.22395833333333 15.7552083333333  4.734375 15.265625  C 4.24479166666667 14.7760416666667  4 14.1875  4 13.5  L 4 2.5  C 4 1.8125  4.24479166666667 1.22395833333333  4.734375 0.734375  C 5.22395833333333 0.244791666666664  5.8125 0  6.5 0  L 23.5 0  C 24.1875 0  24.7760416666667 0.244791666666664  25.265625 0.734375  C 25.7552083333333 1.22395833333333  26 1.8125  26 2.5  L 26 13.5  C 26 14.1875  25.7552083333333 14.7760416666667  25.265625 15.265625  C 24.7760416666667 15.7552083333333  24.1875 16  23.5 16  Z M 6.1484375 2.1484375  C 6.04947916666667 2.24739583333333  6 2.36458333333333  6 2.5  L 6 13.5  C 6 13.6354166666667  6.04947916666667 13.7526041666667  6.1484375 13.8515625  C 6.24739583333333 13.9505208333333  6.36458333333333 14  6.5 14  L 23.5 14  C 23.6354166666667 14  23.7526041666667 13.9505208333333  23.8515625 13.8515625  C 23.9505208333333 13.7526041666667  24 13.6354166666667  24 13.5  L 24 2.5  C 24 2.36458333333333  23.9505208333333 2.24739583333333  23.8515625 2.1484375  C 23.7526041666667 2.04947916666666  23.6354166666667 2  23.5 2  L 6.5 2  C 6.36458333333333 2  6.24739583333333 2.04947916666666  6.1484375 2.1484375  Z M 2.5 17  L 27.5 17  L 30 17  L 30 18.5  C 30 18.9166666666667  29.7552083333333 19.2708333333333  29.265625 19.5625  C 28.7760416666667 19.8541666666667  28.1875 20  27.5 20  L 2.5 20  C 1.8125 20  1.22395833333333 19.8541666666667  0.734375 19.5625  C 0.244791666666667 19.2708333333333  0 18.9166666666667  0 18.5  L 0 17  L 2.5 17  Z M 13.75 18.5  L 16.25 18.5  C 16.4166666666667 18.5  16.5 18.4166666666667  16.5 18.25  C 16.5 18.0833333333333  16.4166666666667 18  16.25 18  L 13.75 18  C 13.5833333333333 18  13.5 18.0833333333333  13.5 18.25  C 13.5 18.4166666666667  13.5833333333333 18.5  13.75 18.5  Z " fill-rule="nonzero" fill="#ffffff" stroke="none" transform="matrix(1 0 0 1 27 110 )" />
  </g>
</svg>