<?xml version="1.0" encoding="utf-8"?>
<svg version="1.1" xmlns:xlink="http://www.w3.org/1999/xlink" width="26px" height="18px" xmlns="http://www.w3.org/2000/svg">
  <g transform="matrix(1 0 0 1 -29 -361 )">
    <path d="M 13 9.81818181818182  L 13 4.90909090909091  L 8.125 4.90909090909091  L 8.125 9.81818181818182  L 13 9.81818181818182  Z M 6.5 13.0909090909091  L 14.625 13.0909090909091  L 14.625 14.7272727272727  L 6.5 14.7272727272727  L 6.5 13.0909090909091  Z M 6.5 3.27272727272727  L 14.625 3.27272727272727  L 14.625 11.4545454545455  L 6.5 11.4545454545455  L 6.5 3.27272727272727  Z M 16.25 13.0909090909091  L 22.75 13.0909090909091  L 22.75 14.7272727272727  L 16.25 14.7272727272727  L 16.25 13.0909090909091  Z M 16.25 9.81818181818182  L 22.75 9.81818181818182  L 22.75 11.4545454545455  L 16.25 11.4545454545455  L 16.25 9.81818181818182  Z M 16.25 6.54545454545455  L 22.75 6.54545454545455  L 22.75 8.18181818181818  L 16.25 8.18181818181818  L 16.25 6.54545454545455  Z M 16.25 3.27272727272727  L 22.75 3.27272727272727  L 22.75 4.90909090909091  L 16.25 4.90909090909091  L 16.25 3.27272727272727  Z M 3.0087890625 16.1207386363636  C 3.16959635416667 15.9588068181818  3.25 15.7670454545455  3.25 15.5454545454545  L 3.25 3.27272727272727  L 2 3.27272727272727  L 2 15.5454545454545  C 1.625 15.7670454545455  1.70540364583333 15.9588068181818  1.8662109375 16.1207386363636  C 2.02701822916667 16.2826704545455  2.21744791666667 16.3636363636364  2.4375 16.3636363636364  C 2.65755208333333 16.3636363636364  2.84798177083333 16.2826704545455  3.0087890625 16.1207386363636  Z M 24.1337890625 16.1207386363636  C 24.2945963541667 15.9588068181818  24.375 15.7670454545455  24 15.5454545454545  L 24 1.63636363636364  L 5 1.63636363636364  L 5 15.5454545454545  C 4.875 15.8267045454545  4.82845052083333 16.0994318181818  4.7353515625 16.3636363636364  L 23.5625 16.3636363636364  C 23.7825520833333 16.3636363636364  23.9729817708333 16.2826704545455  24.1337890625 16.1207386363636  Z M 3.25 0  L 26 0  L 26 15.5454545454545  C 26 16.2272727272727  25.7630208333333 16.8068181818182  25.2890625 17.2840909090909  C 24.8151041666667 17.7613636363636  24.2395833333333 18  23.5625 18  L 2.4375 18  C 1.76041666666667 18  1.18489583333333 17.7613636363636  0.7109375 17.2840909090909  C 0.236979166666667 16.8068181818182  0 16.2272727272727  0 15.5454545454545  L 0 1.63636363636364  L 3.25 1.63636363636364  L 3.25 0  Z " fill-rule="nonzero" fill="#ffffff" stroke="none" transform="matrix(1 0 0 1 29 361 )" />
  </g>
</svg>