<?xml version="1.0" encoding="utf-8"?>
<svg version="1.1" xmlns:xlink="http://www.w3.org/1999/xlink" width="24px" height="20px" xmlns="http://www.w3.org/2000/svg">
  <g transform="matrix(1 0 0 1 -31 -410 )">
    <path d="M 15.8828125 14.1171875  C 16.1276041666667 14.3619791666667  16.25 14.65625  16.25 15  C 16.25 15.34375  16.1276041666667 15.6380208333333  15.8828125 15.8828125  C 15.6380208333333 16.1276041666667  15.34375 16.25  15 16.25  C 14.65625 16.25  14.3619791666667 16.1276041666667  14.1171875 15.8828125  C 13.8723958333333 15.6380208333333  13.75 15.34375  13.75 15  C 13.75 14.65625  13.8723958333333 14.3619791666667  14.1171875 14.1171875  C 14.3619791666667 13.8723958333333  14.65625 13.75  15 13.75  C 15.34375 13.75  15.6380208333333 13.8723958333333  15.8828125 14.1171875  Z M 19.8828125 14.1171875  C 20.1276041666667 14.3619791666667  20.25 14.65625  20.25 15  C 20.25 15.34375  20.1276041666667 15.6380208333333  19.8828125 15.8828125  C 19.6380208333333 16.1276041666667  19.34375 16.25  19 16.25  C 18.65625 16.25  18.3619791666667 16.1276041666667  18.1171875 15.8828125  C 17.8723958333333 15.6380208333333  17.75 15.34375  17.75 15  C 17.75 14.65625  17.8723958333333 14.3619791666667  18.1171875 14.1171875  C 18.3619791666667 13.8723958333333  18.65625 13.75  19 13.75  C 19.34375 13.75  19.6380208333333 13.8723958333333  19.8828125 14.1171875  Z M 21.8515625 17.8515625  C 21.9505208333333 17.7526041666667  22 17.6354166666667  22 17.5  L 22 12.5  C 22 12.3645833333333  21.9505208333333 12.2473958333333  21.8515625 12.1484375  C 21.7526041666667 12.0494791666667  21.6354166666667 12  21.5 12  L 2.5 12  C 2.36458333333333 12  2.24739583333333 12.0494791666667  2.1484375 12.1484375  C 2.04947916666667 12.2473958333333  2 12.3645833333333  2 12.5  L 2 17.5  C 2 17.6354166666667  2.04947916666667 17.7526041666667  2.1484375 17.8515625  C 2.24739583333333 17.9505208333333  2.36458333333333 18  2.5 18  L 21.5 18  C 21.6354166666667 18  21.7526041666667 17.9505208333333  21.8515625 17.8515625  Z M 5.234375 2.46875  L 2.78125 10  L 21.21875 10  L 18.765625 2.46875  C 18.7239583333333 2.33333333333333  18.640625 2.22135416666666  18.515625 2.1328125  C 18.390625 2.04427083333333  18.2552083333333 2  18.109375 2  L 5.890625 2  C 5.74479166666667 2  5.609375 2.04427083333333  5.484375 2.1328125  C 5.359375 2.22135416666666  5.27604166666667 2.33333333333333  5.234375 2.46875  Z M 23.75 11.328125  C 23.9166666666667 11.8489583333333  24 12.2395833333333  24 12.5  L 24 17.5  C 24 18.1875  23.7552083333333 18.7760416666667  23.265625 19.265625  C 22.7760416666667 19.7552083333333  22.1875 20  21.5 20  L 2.5 20  C 1.8125 20  1.22395833333333 19.7552083333333  0.734375 19.265625  C 0.244791666666667 18.7760416666667  0 18.1875  0 17.5  L 0 12.5  C 0 12.2395833333333  0.0833333333333333 11.8489583333333  0.25 11.328125  L 3.328125 1.859375  C 3.50520833333333 1.30729166666666  3.83333333333333 0.859375  4.3125 0.515625  C 4.79166666666667 0.171874999999999  5.31770833333333 0  5.890625 0  L 18.109375 0  C 18.6822916666667 0  19.2083333333333 0.171874999999999  19.6875 0.515625  C 20.1666666666667 0.859375  20.4947916666667 1.30729166666666  20.671875 1.859375  L 23.75 11.328125  Z " fill-rule="nonzero" fill="#ffffff" stroke="none" transform="matrix(1 0 0 1 31 410 )" />
  </g>
</svg>