<?xml version="1.0" encoding="utf-8"?>
<svg version="1.1" xmlns:xlink="http://www.w3.org/1999/xlink" width="26px" height="20px" xmlns="http://www.w3.org/2000/svg">
  <g transform="matrix(1 0 0 1 -31 -457 )">
    <path d="M 1.85714285714286 16  L 1.85714285714286 18  L 16.7142857142857 18  L 16.7142857142857 16  L 1.85714285714286 16  Z M 1.85714285714286 9  L 1.85714285714286 11  L 16.7142857142857 11  L 16.7142857142857 9  L 1.85714285714286 9  Z M 24.2008928571429 18.2386363636364  C 24.4717261904762 17.9734848484848  24.6071428571429 17.6515151515152  24.6071428571429 17.2727272727273  C 24.6071428571429 16.8939393939394  24.4717261904762 16.5719696969697  24.2008928571429 16.3068181818182  C 23.9300595238095 16.0416666666667  23.6011904761905 15.9090909090909  23.2142857142857 15.9090909090909  C 22.827380952381 15.9090909090909  22.4985119047619 16.0416666666667  22.2276785714286 16.3068181818182  C 21.9568452380952 16.5719696969697  21.8214285714286 16.8939393939394  21.8214285714286 17.2727272727273  C 21.8214285714286 17.6515151515152  21.9568452380952 17.9734848484848  22.2276785714286 18.2386363636364  C 22.4985119047619 18.5037878787879  22.827380952381 18.6363636363636  23.2142857142857 18.6363636363636  C 23.6011904761905 18.6363636363636  23.9300595238095 18.5037878787879  24.2008928571429 18.2386363636364  Z M 1.85714285714286 2  L 1.85714285714286 4  L 16.7142857142857 4  L 16.7142857142857 2  L 1.85714285714286 2  Z M 24.2008928571429 10.9659090909091  C 24.4717261904762 10.7007575757576  24.6071428571429 10.3787878787879  24.6071428571429 10  C 24.6071428571429 9.62121212121212  24.4717261904762 9.29924242424242  24.2008928571429 9.03409090909091  C 23.9300595238095 8.76893939393939  23.6011904761905 8.63636363636363  23.2142857142857 8.63636363636363  C 22.827380952381 8.63636363636363  22.4985119047619 8.76893939393939  22.2276785714286 9.03409090909091  C 21.9568452380952 9.29924242424242  21.8214285714286 9.62121212121212  21.8214285714286 10  C 21.8214285714286 10.3787878787879  21.9568452380952 10.7007575757576  22.2276785714286 10.9659090909091  C 22.4985119047619 11.2310606060606  22.827380952381 11.3636363636364  23.2142857142857 11.3636363636364  C 23.6011904761905 11.3636363636364  23.9300595238095 11.2310606060606  24.2008928571429 10.9659090909091  Z M 24.2008928571429 3.69318181818182  C 24.4717261904762 3.4280303030303  24.6071428571429 3.1060606060606  24.6071428571429 2.72727272727273  C 24.6071428571429 2.34848484848485  24.4717261904762 2.02651515151515  24.2008928571429 1.76136363636364  C 23.9300595238095 1.49621212121212  23.6011904761905 1.36363636363636  23.2142857142857 1.36363636363636  C 22.827380952381 1.36363636363636  22.4985119047619 1.49621212121212  22.2276785714286 1.76136363636364  C 21.9568452380952 2.02651515151515  21.8214285714286 2.34848484848485  21.8214285714286 2.72727272727273  C 21.8214285714286 3.1060606060606  21.9568452380952 3.4280303030303  22.2276785714286 3.69318181818182  C 22.4985119047619 3.95833333333333  22.827380952381 4.09090909090909  23.2142857142857 4.09090909090909  C 23.6011904761905 4.09090909090909  23.9300595238095 3.95833333333333  24.2008928571429 3.69318181818182  Z M 0 14.5454545454545  L 26 14.5454545454545  L 26 20  L 0 20  L 0 14.5454545454545  Z M 0 7.27272727272727  L 26 7.27272727272727  L 26 12.7272727272727  L 0 12.7272727272727  L 0 7.27272727272727  Z M 0 0  L 26 0  L 26 5.45454545454545  L 0 5.45454545454545  L 0 0  Z " fill-rule="nonzero" fill="#ffffff" stroke="none" transform="matrix(1 0 0 1 31 457 )" />
  </g>
</svg>