<?xml version="1.0" encoding="utf-8"?>
<svg version="1.1" xmlns:xlink="http://www.w3.org/1999/xlink" width="39px" height="30px" xmlns="http://www.w3.org/2000/svg">
  <g transform="matrix(1 0 0 1 -1509 -403 )">
    <path d="M 16.919677734375 19.208984375  C 17.014892578125 19.814453125  17.0625 20.46875  17.0625 21.171875  C 17.0625 21.8880208333333  16.862548828125 22.4967447916667  16.462646484375 22.998046875  C 16.062744140625 23.4993489583333  15.58349609375 23.75  15.02490234375 23.75  L 6.91259765625 23.75  C 6.35400390625 23.75  5.874755859375 23.4993489583333  5.474853515625 22.998046875  C 5.074951171875 22.4967447916667  4.875 21.8880208333333  4.875 21.171875  C 4.875 20.46875  4.922607421875 19.814453125  5.017822265625 19.208984375  C 5.113037109375 18.603515625  5.2685546875 18.017578125  5.484375 17.451171875  C 5.7001953125 16.884765625  6.02392578125 16.4388020833333  6.45556640625 16.11328125  C 6.88720703125 15.7877604166667  7.4013671875 15.625  7.998046875 15.625  C 8.810546875 16.4583333333333  9.80078125 16.875  10.96875 16.875  C 12.13671875 16.875  13.126953125 16.4583333333333  13.939453125 15.625  C 14.5361328125 15.625  15.05029296875 15.7877604166667  15.48193359375 16.11328125  C 15.91357421875 16.4388020833333  16.2373046875 16.884765625  16.453125 17.451171875  C 16.6689453125 18.017578125  16.824462890625 18.603515625  16.919677734375 19.208984375  Z M 13.55859375 9.84375  C 14.26953125 10.5729166666667  14.625 11.4583333333333  14.625 12.5  C 14.625 13.5416666666667  14.26953125 14.4270833333333  13.55859375 15.15625  C 12.84765625 15.8854166666667  11.984375 16.25  10.96875 16.25  C 9.953125 16.25  9.08984375 15.8854166666667  8.37890625 15.15625  C 7.66796875 14.4270833333333  7.3125 13.5416666666667  7.3125 12.5  C 7.3125 11.4583333333333  7.66796875 10.5729166666667  8.37890625 9.84375  C 9.08984375 9.11458333333333  9.953125 8.75  10.96875 8.75  C 11.984375 8.75  12.84765625 9.11458333333333  13.55859375 9.84375  Z M 33.95361328125 20.17578125  C 34.06787109375 20.29296875  34.125 20.4427083333333  34.125 20.625  L 34.125 21.875  C 34.125 22.0572916666667  34.06787109375 22.20703125  33.95361328125 22.32421875  C 33.83935546875 22.44140625  33.693359375 22.5  33.515625 22  L 20.109375 22  C 19.931640625 22.5  19.78564453125 22.44140625  19.67138671875 22.32421875  C 19.55712890625 22.20703125  19.5 22.0572916666667  19.5 21.875  L 19.5 20.625  C 19.5 20.4427083333333  19.55712890625 20.29296875  19.67138671875 20.17578125  C 19.78564453125 20.05859375  19.931640625 20  20.109375 20  L 33.515625 20  C 33.693359375 20  33.83935546875 20.05859375  33.95361328125 20.17578125  Z M 26.64111328125 15.17578125  C 26.75537109375 15.29296875  26.8125 15.4427083333333  26.8125 15.625  L 26.8125 16.875  C 26.8125 17.0572916666667  26.75537109375 17.20703125  26.64111328125 17.32421875  C 26.52685546875 17.44140625  26.380859375 17.5  26.203125 17.5  L 20.109375 17.5  C 19.931640625 17.5  19.78564453125 17.44140625  19.67138671875 17.32421875  C 19.55712890625 17.20703125  19.5 17.0572916666667  19.5 16.875  L 19.5 15.625  C 19.5 15.4427083333333  19.55712890625 15.29296875  19.67138671875 15.17578125  C 19.78564453125 15.05859375  19.931640625 15  20.109375 15  L 26.203125 15  C 26.380859375 15  26.52685546875 15.05859375  26.64111328125 15.17578125  Z M 33.95361328125 15.17578125  C 34.06787109375 15.29296875  34.125 15.4427083333333  34.125 15.625  L 34.125 16.875  C 34.125 17.0572916666667  34.06787109375 17.20703125  33.95361328125 17.32421875  C 33.83935546875 17.44140625  33.693359375 17.5  33.515625 17.5  L 29.859375 17.5  C 29.681640625 17.5  29.53564453125 17.44140625  29.42138671875 17.32421875  C 29.30712890625 17.20703125  29.25 17.0572916666667  29.25 16.875  L 29.25 15.625  C 29.25 15.4427083333333  29.30712890625 15.29296875  29.42138671875 15.17578125  C 29.53564453125 15.05859375  29.681640625 15  29.859375 15  L 33.515625 15  C 33.693359375 15  33.83935546875 15.05859375  33.95361328125 15.17578125  Z M 33.95361328125 10.17578125  C 34.06787109375 10.29296875  34.125 10.4427083333333  34.125 10.625  L 34.125 11.875  C 34.125 12.0572916666667  34.06787109375 12.20703125  33.95361328125 12.32421875  C 33.83935546875 12.44140625  33.693359375 12.5  33.515625 13  L 20.109375 13  C 19.931640625 12.5  19.78564453125 12.44140625  19.67138671875 12.32421875  C 19.55712890625 12.20703125  19.5 12.0572916666667  19.5 11.875  L 19.5 10.625  C 19.5 10.4427083333333  19.55712890625 10.29296875  19.67138671875 10.17578125  C 19.78564453125 10.05859375  19.931640625 10  20.109375 10  L 33.515625 10  C 33.693359375 10  33.83935546875 10.05859375  33.95361328125 10.17578125  Z M 36.381591796875 27.314453125  C 36.502197265625 27.1907552083333  36.5625 27.0442708333333  36 26.875  L 36 5  L 3 5  L 3 26.875  C 2.4375 27.0442708333333  2.497802734375 27.1907552083333  2.618408203125 27.314453125  C 2.739013671875 27.4381510416667  2.8818359375 27.5  3.046875 27  L 35.953125 27  C 36.1181640625 27.5  36.260986328125 27.4381510416667  36.381591796875 27.314453125  Z M 38.10498046875 0.917968750000001  C 38.70166015625 1.52994791666667  39 2.265625  39 3.125  L 39 26.875  C 39 27.734375  38.70166015625 28.4700520833333  38.10498046875 29.08203125  C 37.50830078125 29.6940104166667  36.791015625 30  35.953125 30  L 3.046875 30  C 2.208984375 30  1.49169921875 29.6940104166667  0.89501953125 29.08203125  C 0.29833984375 28.4700520833333  0 27.734375  0 26.875  L 0 3.125  C 0 2.265625  0.29833984375 1.52994791666667  0.89501953125 0.917968750000001  C 1.49169921875 0.30598958333333  2.208984375 0  3.046875 0  L 35.953125 0  C 36.791015625 0  37.50830078125 0.30598958333333  38.10498046875 0.917968750000001  Z " fill-rule="nonzero" fill="#02a7f0" stroke="none" transform="matrix(1 0 0 1 1509 403 )" />
  </g>
</svg>