<?xml version="1.0" encoding="utf-8"?>
<svg version="1.1" xmlns:xlink="http://www.w3.org/1999/xlink" width="33px" height="30px" xmlns="http://www.w3.org/2000/svg">
  <g transform="matrix(1 0 0 1 -1724 -403 )">
    <path d="M 4.71428571428571 4.2  C 7.78348214285714 4.2  10.3002232142857 5.60625  12.2645089285714 8.41875  C 11.5279017857143 9.56875  10.6869419642857 11.275  9.74162946428571 13.5375  C 9.47154017857143 12.975  9.24441964285714 12.521875  9.06026785714286 12.178125  C 8.87611607142857 11.834375  8.62751116071429 11.4375  8.314453125 10.9875  C 8.00139508928572 10.5375  7.68833705357143 10.184375  7.37527901785714 9.928125  C 7.06222098214286 9.671875  6.67550223214286 9.453125  6.21512276785714 9.271875  C 5.75474330357143 9.090625  5.25446428571429 9  4.71428571428571 9  L 0.589285714285714 9  C 0.417410714285714 9  0.276227678571429 8.94375  0.165736607142857 8.83125  C 0.0552455357142857 8.71875  0 8.575  0 8.4  L 0 4.8  C 0 4.625  0.0552455357142857 4.48125  0.165736607142857 4.36875  C 0.276227678571429 4.25625  0.417410714285714 4.2  0.589285714285714 4.2  L 4.71428571428571 4.2  Z M 32.8342633928571 22.96875  C 32.9447544642857 23.08125  33 23.225  33 23.4  C 33 23.575  32.9447544642857 23.71875  32.8342633928571 23.83125  L 26.94140625 29.83125  C 26.8309151785714 29.94375  26.6897321428571 30  26.5178571428571 30  C 26.3582589285714 30  26.2201450892857 29.940625  26.103515625 29.821875  C 25.9868861607143 29.703125  25.9285714285714 29.5625  25.9285714285714 29.4  L 25.9285714285714 25.8  C 25.5357142857143 25.8  25.0139508928571 25.803125  24.36328125 25.809375  C 23.7126116071429 25.815625  23.2154017857143 25.821875  22.8716517857143 25.828125  C 22.5279017857143 25.834375  22.0797991071429 25.828125  21.52734375 25.809375  C 20.9748883928571 25.790625  20.5390625 25.759375  20.2198660714286 25.715625  C 19.9006696428571 25.671875  19.5078125 25.60625  19.0412946428571 25.51875  C 18.5747767857143 25.43125  18.1880580357143 25.315625  17.8811383928571 25.171875  C 17.57421875 25.028125  17.2181919642857 24.85  16.8130580357143 24.6375  C 16.4079241071429 24.425  16.0457589285714 24.175  15.7265625 23.8875  C 15.4073660714286 23.6  15.0697544642857 23.265625  14.7137276785714 22.884375  C 14.3577008928571 22.503125  14.0139508928571 22.06875  13.6824776785714 21.58125  C 14.4068080357143 20.41875  15.2416294642857 18.7125  16.1869419642857 16.4625  C 16.45703125 17.025  16.6841517857143 17.478125  16.8683035714286 17.821875  C 17.0524553571429 18.165625  17.3010602678571 18.5625  17.6141183035714 19.0125  C 17.9271763392857 19.4625  18.240234375 19.815625  18.5532924107143 20.071875  C 18.8663504464286 20.328125  19.2530691964286 20.546875  19.7134486607143 20.728125  C 20.173828125 20.909375  20.6741071428571 21  21.2142857142857 21  L 25.9285714285714 21  L 25.9285714285714 17.4  C 25.9285714285714 17.225  25.9838169642857 17.08125  26.0943080357143 16.96875  C 26.2047991071429 16.85625  26.3459821428571 16.8  26.5178571428571 16.8  C 26.6651785714286 16.8  26.8125 16.8625  26.9598214285714 16.9875  L 32.8342633928571 22.96875  Z M 32.8342633928571 6.16875  C 32.9447544642857 6.28125  33 6.425  33 6.6  C 33 6.775  32.9447544642857 6.91875  32.8342633928571 7.03125  L 26.94140625 13.03125  C 26.8309151785714 13.14375  26.6897321428571 13.2  26.5178571428571 13.2  C 26.3582589285714 13.2  26.2201450892857 13.140625  26.103515625 13.021875  C 25.9868861607143 12.903125  25.9285714285714 12.7625  25.9285714285714 12.6  L 25.9285714285714 9  L 21.2142857142857 9  C 20.625 9  20.0909598214286 9.09375  19.6121651785714 9.28125  C 19.1333705357143 9.46875  18.7098214285714 9.75  18.3415178571429 10.125  C 17.9732142857143 10.5  17.66015625 10.884375  17.40234375 11.278125  C 17.14453125 11.671875  16.8683035714286 12.15625  16.5736607142857 12.73125  C 16.1808035714286 13.50625  15.7020089285714 14.575  15.1372767857143 15.9375  C 14.78125 16.7625  14.4773995535714 17.45625  14.2257254464286 18.01875  C 13.9740513392857 18.58125  13.642578125 19.2375  13.2313058035714 19.9875  C 12.8200334821429 20.7375  12.4271763392857 21.3625  12.052734375 21.8625  C 11.6782924107143 22.3625  11.2240513392857 22.88125  10.6900111607143 23.41875  C 10.1559709821429 23.95625  9.603515625 24.384375  9.03264508928571 24.703125  C 8.46177455357143 25.021875  7.80803571428572 25.284375  7.07142857142857 25.490625  C 6.33482142857143 25.696875  5.54910714285714 25.8  4.71428571428571 25.8  L 0.589285714285714 25.8  C 0.417410714285714 25.8  0.276227678571429 25.74375  0.165736607142857 25.63125  C 0.0552455357142857 25.51875  0 25.375  0 25.2  L 0 21.6  C 0 21.425  0.0552455357142857 21.28125  0.165736607142857 21.16875  C 0.276227678571429 21.05625  0.417410714285714 21  0.589285714285714 21  L 4.71428571428571 21  C 5.30357142857143 21  5.83761160714286 20.90625  6.31640625 20.71875  C 6.79520089285714 20.53125  7.21875 20.25  7.58705357142857 19.875  C 7.95535714285714 19.5  8.26841517857143 19.115625  8.52622767857143 18.721875  C 8.78404017857143 18.328125  9.06026785714286 17.84375  9.35491071428571 17.26875  C 9.74776785714286 16.49375  10.2265625 15.425  10.7912946428571 14.0625  C 11.1473214285714 13.2375  11.451171875 12.54375  11.7028459821429 11.98125  C 11.9545200892857 11.41875  12.2859933035714 10.7625  12.697265625 10.0125  C 13.1085379464286 9.2625  13.5013950892857 8.6375  13.8758370535714 8.1375  C 14.2502790178571 7.6375  14.7045200892857 7.11875  15.2385602678571 6.58125  C 15.7726004464286 6.04375  16.3250558035714 5.615625  16.8959263392857 5.296875  C 17.466796875 4.978125  18.1205357142857 4.715625  18.8571428571429 4.509375  C 19.59375 4.303125  20.3794642857143 4.2  21.2142857142857 4.2  L 25.9285714285714 4.2  L 25.9285714285714 0.600000000000001  C 25.9285714285714 0.424999999999996  25.9838169642857 0.281250000000001  26.0943080357143 0.16875  C 26.2047991071429 0.0562499999999988  26.3459821428571 0  26.5178571428571 0  C 26.6651785714286 0  26.8125 0.0624999999999998  26.9598214285714 0.187499999999999  L 32.8342633928571 6.16875  Z " fill-rule="nonzero" fill="#02a7f0" stroke="none" transform="matrix(1 0 0 1 1724 403 )" />
  </g>
</svg>