<?xml version="1.0" encoding="utf-8"?>
<svg version="1.1" xmlns:xlink="http://www.w3.org/1999/xlink" width="28px" height="32px" xmlns="http://www.w3.org/2000/svg">
  <g transform="matrix(1 0 0 1 -1302 -401 )">
    <path d="M 21.0729166666667 1.21428571428572  L 26.7604166666667 6.78571428571428  C 27.1006944444444 7.11904761904762  27.3923611111111 7.57142857142857  27.6354166666667 8.14285714285714  C 27.8784722222222 8.71428571428572  28 9.23809523809524  28 9.71428571428572  L 28 30.2857142857143  C 28 30.7619047619048  27.8298611111111 31.1666666666667  27.4895833333333 31.5  C 27.1493055555556 31.8333333333333  26.7361111111111 32  26.25 32  L 1.75 32  C 1.26388888888889 32  0.850694444444445 31.8333333333333  0.510416666666667 31.5  C 0.170138888888889 31.1666666666667  0 30.7619047619048  0 30.2857142857143  L 0 1.71428571428572  C 0 1.23809523809524  0.170138888888889 0.833333333333332  0.510416666666667 0.5  C 0.850694444444445 0.166666666666668  1.26388888888889 0  1.75 0  L 18.0833333333333 0  C 18.5694444444444 0  19.1041666666667 0.11904761904762  19.6875 0.357142857142858  C 20.2708333333333 0.595238095238095  20.7326388888889 0.88095238095238  21.0729166666667 1.21428571428572  Z M 19.4140625 2.82142857142857  C 19.2682291666667 2.67857142857143  19.0190972222222 2.54761904761904  18.6666666666667 2.42857142857143  L 18.6666666666667 9.14285714285714  L 25.5208333333333 9.14285714285714  C 25.3993055555556 8.79761904761904  25.265625 8.55357142857143  25.1197916666667 8.41071428571428  L 19.4140625 2.82142857142857  Z M 2.33333333333333 29.7142857142857  L 25.6666666666667 29.7142857142857  L 25.6666666666667 11.4285714285714  L 18.0833333333333 11.4285714285714  C 17.5972222222222 11.4285714285714  17.1840277777778 11.2619047619048  16.84375 10.9285714285714  C 16.5034722222222 10.5952380952381  16.3333333333333 10.1904761904762  16.3333333333333 9.71428571428572  L 16.3333333333333 2.28571428571428  L 2.33333333333333 2.28571428571428  L 2.33333333333333 29.7142857142857  Z M 7 15.4285714285714  L 7 14.2857142857143  C 7 14.1190476190476  7.0546875 13.9821428571429  7.1640625 13.875  C 7.2734375 13.7678571428571  7.41319444444445 13.7142857142857  7.58333333333333 14  L 20.4166666666667 14  C 20.5868055555556 13.7142857142857  20.7265625 13.7678571428571  20.8359375 13.875  C 20.9453125 13.9821428571429  21 14.1190476190476  21 14.2857142857143  L 21 15.4285714285714  C 21 15.5952380952381  20.9453125 15.7321428571429  20.8359375 15.8392857142857  C 20.7265625 15.9464285714286  20.5868055555556 16  20.4166666666667 16  L 7.58333333333333 16  C 7.41319444444445 16  7.2734375 15.9464285714286  7.1640625 15.8392857142857  C 7.0546875 15.7321428571429  7 15.5952380952381  7 15.4285714285714  Z M 7.58333333333333 18  L 20.4166666666667 18  C 20.5868055555556 18.2857142857143  20.7265625 18.3392857142857  20.8359375 18.4464285714286  C 20.9453125 18.5535714285714  21 18.6904761904762  21 18.8571428571429  L 21 20  C 21 20.1666666666667  20.9453125 20.3035714285714  20.8359375 20.4107142857143  C 20.7265625 20.5178571428571  20.5868055555556 20.5714285714286  20.4166666666667 20  L 7.58333333333333 20  C 7.41319444444445 20.5714285714286  7.2734375 20.5178571428571  7.1640625 20.4107142857143  C 7.0546875 20.3035714285714  7 20.1666666666667  7 20  L 7 18.8571428571429  C 7 18.6904761904762  7.0546875 18.5535714285714  7.1640625 18.4464285714286  C 7.2734375 18.3392857142857  7.41319444444445 18.2857142857143  7.58333333333333 18  Z M 7.58333333333333 22.8571428571429  L 20.4166666666667 22.8571428571429  C 20.5868055555556 22.8571428571429  20.7265625 22.9107142857143  20.8359375 23.0178571428571  C 20.9453125 23.125  21 23.2619047619048  21 23.4285714285714  L 21 24.5714285714286  C 21 24.7380952380952  20.9453125 24.875  20.8359375 24.9821428571429  C 20.7265625 25.0892857142857  20.5868055555556 25.1428571428571  20.4166666666667 25  L 7.58333333333333 25  C 7.41319444444445 25.1428571428571  7.2734375 25.0892857142857  7.1640625 24.9821428571429  C 7.0546875 24.875  7 24.7380952380952  7 24.5714285714286  L 7 23.4285714285714  C 7 23.2619047619048  7.0546875 23.125  7.1640625 23.0178571428571  C 7.2734375 22.9107142857143  7.41319444444445 22.8571428571429  7.58333333333333 22.8571428571429  Z " fill-rule="nonzero" fill="#02a7f0" stroke="none" transform="matrix(1 0 0 1 1302 401 )" />
  </g>
</svg>