<?xml version="1.0" encoding="utf-8"?>
<svg version="1.1" xmlns:xlink="http://www.w3.org/1999/xlink" width="36px" height="30px" xmlns="http://www.w3.org/2000/svg">
  <g transform="matrix(1 0 0 1 -1723 -525 )">
    <path d="M 27.3046875 13.9453125  C 27.6015625 14.2421875  27.75 14.59375  27.75 15  C 27.75 15.40625  27.6015625 15.7578125  27.3046875 16.0546875  L 14.5546875 28.8046875  C 14.2578125 29.1015625  13.90625 29.25  13.5 29.25  C 13.09375 29.25  12.7421875 29.1015625  12.4453125 28.8046875  C 12.1484375 28.5078125  12 28.15625  12 27.75  L 12 21  L 1.5 21  C 1.09375 21  0.7421875 20.8515625  0.4453125 20.5546875  C 0.1484375 20.2578125  0 19.90625  0 19.5  L 0 10.5  C 0 10.09375  0.1484375 9.7421875  0.4453125 9.4453125  C 0.7421875 9.1484375  1.09375 9  1.5 9  L 12 9  L 12 2.25  C 12 1.84375  12.1484375 1.4921875  12.4453125 1.1953125  C 12.7421875 0.898437499999999  13.09375 0.750000000000001  13.5 0.750000000000001  C 13.90625 0.750000000000001  14.2578125 0.898437499999999  14.5546875 1.1953125  L 27.3046875 13.9453125  Z M 34.01953125 1.98046875  C 35.33984375 3.30078125  36 4.89062499999999  36 6.75  L 36 23.25  C 36 25.109375  35.33984375 26.69921875  34.01953125 28.01953125  C 32.69921875 29.33984375  31.109375 30  29.25 30  L 21.75 30  C 21.546875 30  21.37109375 29.92578125  21.22265625 29.77734375  C 21.07421875 29.62890625  21 29.453125  21 29.25  C 21 29.1875  20.9921875 29.03125  20.9765625 28.78125  C 20.9609375 28.53125  20.95703125 28.32421875  20.96484375 28.16015625  C 20.97265625 27.99609375  20.99609375 27.8125  21.03515625 27.609375  C 21.07421875 27.40625  21.15234375 27.25390625  21.26953125 27.15234375  C 21.38671875 27.05078125  21.546875 27  21.75 27  L 29.25 27  C 30.28125 27  31.1640625 26.6328125  31.8984375 25.8984375  C 32.6328125 25.1640625  33 24.28125  33 23.25  L 33 6.75  C 33 5.71875  32.6328125 4.8359375  31.8984375 4.1015625  C 31.1640625 3.3671875  30.28125 3  29.25 3  L 22.5 3  L 22.2421875 3  L 21.9375 3  C 21.9375 3  21.84765625 2.9921875  21.66796875 2.9765625  C 21.48828125 2.9609375  21.3984375 2.9375  21.3984375 2.90625  C 21.3984375 2.875  21.3359375 2.83203125  21.2109375 2.77734375  C 21.0859375 2.72265625  21.03125 2.65234375  21.046875 2.56640625  C 21.0625 2.48046875  21.046875 2.375  21 2.25  C 21 2.1875  20.9921875 2.03125  20.9765625 1.78125  C 20.9609375 1.53125  20.95703125 1.32421875  20.96484375 1.16015625  C 20.97265625 0.99609375  20.99609375 0.812499999999997  21.03515625 0.609374999999999  C 21.07421875 0.406249999999997  21.15234375 0.253906249999999  21.26953125 0.152343750000001  C 21.38671875 0.0507812499999971  21.546875 0  21.75 0  L 29.25 0  C 31.109375 0  32.69921875 0.660156249999996  34.01953125 1.98046875  Z " fill-rule="nonzero" fill="#02a7f0" stroke="none" transform="matrix(1 0 0 1 1723 525 )" />
  </g>
</svg>