<?xml version="1.0" encoding="utf-8"?>
<svg version="1.1" xmlns:xlink="http://www.w3.org/1999/xlink" width="20px" height="20px" xmlns="http://www.w3.org/2000/svg">
  <g transform="matrix(1 0 0 1 -1114 -208 )">
    <path d="M 1124 210  C 1128.48 210  1132 213.52  1132 218  C 1132 222.48  1128.48 226  1124 226  C 1119.52 226  1116 222.48  1116 218  C 1116 213.52  1119.52 210  1124 210  Z " fill-rule="nonzero" fill="#ffffff" stroke="none" />
    <path d="M 1124 209.5  C 1128.76 209.5  1132.5 213.24  1132.5 218  C 1132.5 222.76  1128.76 226.5  1124 226.5  C 1119.24 226.5  1115.5 222.76  1115.5 218  C 1115.5 213.24  1119.24 209.5  1124 209.5  Z " stroke-width="3" stroke="#95f204" fill="none" />
  </g>
</svg>