<?xml version="1.0" encoding="utf-8"?>
<svg version="1.1" xmlns:xlink="http://www.w3.org/1999/xlink" width="90px" height="90px" xmlns="http://www.w3.org/2000/svg">
  <defs>
    <filter x="1055px" y="209px" width="90px" height="90px" filterUnits="userSpaceOnUse" id="filter35">
      <feOffset dx="0" dy="5" in="SourceAlpha" result="shadowOffsetInner" />
      <feGaussianBlur stdDeviation="2.5" in="shadowOffsetInner" result="shadowGaussian" />
      <feComposite in2="shadowGaussian" operator="atop" in="SourceAlpha" result="shadowComposite" />
      <feColorMatrix type="matrix" values="0 0 0 0 0  0 0 0 0 0  0 0 0 0 0  0 0 0 0.349019607843137 0  " in="shadowComposite" />
    </filter>
    <g id="widget36">
      <path d="M 1100 209  C 1122.4 209  1140 226.6  1140 249  C 1140 271.4  1122.4 289  1100 289  C 1077.6 289  1060 271.4  1060 249  C 1060 226.6  1077.6 209  1100 209  Z " fill-rule="nonzero" fill="#70b603" stroke="none" />
      <path d="M 1100 209.5  C 1122.12 209.5  1139.5 226.88  1139.5 249  C 1139.5 271.12  1122.12 288.5  1100 288.5  C 1077.88 288.5  1060.5 271.12  1060.5 249  C 1060.5 226.88  1077.88 209.5  1100 209.5  Z " stroke-width="1" stroke="#797979" fill="none" />
    </g>
  </defs>
  <g transform="matrix(1 0 0 1 -1055 -209 )">
    <use xlink:href="#widget36" filter="url(#filter35)" />
    <use xlink:href="#widget36" />
  </g>
</svg>