<?xml version="1.0" encoding="utf-8"?>
<svg version="1.1" xmlns:xlink="http://www.w3.org/1999/xlink" width="16px" height="16px" viewBox="783 820.5  16 16" xmlns="http://www.w3.org/2000/svg">
  <path d="M 791 820.5  C 795.48 820.5  799 824.02  799 828.5  C 799 832.98  795.48 836.5  791 836.5  C 786.52 836.5  783 832.98  783 828.5  C 783 824.02  786.52 820.5  791 820.5  Z " fill-rule="nonzero" fill="#ffffff" stroke="none" />
  <path d="M 791 821  C 795.2 821  798.5 824.3  798.5 828.5  C 798.5 832.7  795.2 836  791 836  C 786.8 836  783.5 832.7  783.5 828.5  C 783.5 824.3  786.8 821  791 821  Z " stroke-width="1" stroke="#8c8c8c" fill="none" />
  <path d="M 791 832.5  C 788.76 832.5  787 830.74  787 828.5  C 787 826.26  788.76 824.5  791 824.5  C 793.24 824.5  795 826.26  795 828.5  C 795 830.74  793.24 832.5  791 832.5  " fill-rule="nonzero" fill="#8c8c8c" stroke="none" />
</svg>