<?xml version="1.0" encoding="utf-8"?>
<svg version="1.1" xmlns:xlink="http://www.w3.org/1999/xlink" width="16px" height="16px" viewBox="583 535.5  16 16" xmlns="http://www.w3.org/2000/svg">
  <path d="M 591 535.5  C 595.48 535.5  599 539.02  599 543.5  C 599 547.98  595.48 551.5  591 551.5  C 586.52 551.5  583 547.98  583 543.5  C 583 539.02  586.52 535.5  591 535.5  Z " fill-rule="nonzero" fill="#ffffff" stroke="none" />
  <path d="M 591 536  C 595.2 536  598.5 539.3  598.5 543.5  C 598.5 547.7  595.2 551  591 551  C 586.8 551  583.5 547.7  583.5 543.5  C 583.5 539.3  586.8 536  591 536  Z " stroke-width="1" stroke="#8c8c8c" fill="none" />
  <path d="M 591 547.5  C 588.76 547.5  587 545.74  587 543.5  C 587 541.26  588.76 539.5  591 539.5  C 593.24 539.5  595 541.26  595 543.5  C 595 545.74  593.24 547.5  591 547.5  " fill-rule="nonzero" fill="#8c8c8c" stroke="none" />
</svg>