<?xml version="1.0" encoding="utf-8"?>
<svg version="1.1" xmlns:xlink="http://www.w3.org/1999/xlink" width="16px" height="16px" viewBox="913 820.5  16 16" xmlns="http://www.w3.org/2000/svg">
  <path d="M 921 820.5  C 925.48 820.5  929 824.02  929 828.5  C 929 832.98  925.48 836.5  921 836.5  C 916.52 836.5  913 832.98  913 828.5  C 913 824.02  916.52 820.5  921 820.5  Z " fill-rule="nonzero" fill="#ffffff" stroke="none" />
  <path d="M 921 821  C 925.2 821  928.5 824.3  928.5 828.5  C 928.5 832.7  925.2 836  921 836  C 916.8 836  913.5 832.7  913.5 828.5  C 913.5 824.3  916.8 821  921 821  Z " stroke-width="1" stroke="#8c8c8c" fill="none" />
  <path d="M 921 832.5  C 918.76 832.5  917 830.74  917 828.5  C 917 826.26  918.76 824.5  921 824.5  C 923.24 824.5  925 826.26  925 828.5  C 925 830.74  923.24 832.5  921 832.5  " fill-rule="nonzero" fill="#8c8c8c" stroke="none" />
</svg>