<?xml version="1.0" encoding="utf-8"?>
<svg version="1.1" xmlns:xlink="http://www.w3.org/1999/xlink" width="16px" height="16px" viewBox="653 820.5  16 16" xmlns="http://www.w3.org/2000/svg">
  <path d="M 661 820.5  C 665.48 820.5  669 824.02  669 828.5  C 669 832.98  665.48 836.5  661 836.5  C 656.52 836.5  653 832.98  653 828.5  C 653 824.02  656.52 820.5  661 820.5  Z " fill-rule="nonzero" fill="#f0f0f0" stroke="none" />
  <path d="M 661 821  C 665.2 821  668.5 824.3  668.5 828.5  C 668.5 832.7  665.2 836  661 836  C 656.8 836  653.5 832.7  653.5 828.5  C 653.5 824.3  656.8 821  661 821  Z " stroke-width="1" stroke="#8c8c8c" fill="none" />
  <path d="M 661 832.5  C 658.76 832.5  657 830.74  657 828.5  C 657 826.26  658.76 824.5  661 824.5  C 663.24 824.5  665 826.26  665 828.5  C 665 830.74  663.24 832.5  661 832.5  " fill-rule="nonzero" fill="#8c8c8c" stroke="none" />
</svg>