<?xml version="1.0" encoding="utf-8"?>
<svg version="1.1" xmlns:xlink="http://www.w3.org/1999/xlink" width="16px" height="16px" viewBox="585 646.5  16 16" xmlns="http://www.w3.org/2000/svg">
  <path d="M 593 646.5  C 597.48 646.5  601 650.02  601 654.5  C 601 658.98  597.48 662.5  593 662.5  C 588.52 662.5  585 658.98  585 654.5  C 585 650.02  588.52 646.5  593 646.5  Z " fill-rule="nonzero" fill="#ffffff" stroke="none" />
  <path d="M 593 647  C 597.2 647  600.5 650.3  600.5 654.5  C 600.5 658.7  597.2 662  593 662  C 588.8 662  585.5 658.7  585.5 654.5  C 585.5 650.3  588.8 647  593 647  Z " stroke-width="1" stroke="#8c8c8c" fill="none" />
  <path d="M 593 658.5  C 590.76 658.5  589 656.74  589 654.5  C 589 652.26  590.76 650.5  593 650.5  C 595.24 650.5  597 652.26  597 654.5  C 597 656.74  595.24 658.5  593 658.5  " fill-rule="nonzero" fill="#8c8c8c" stroke="none" />
</svg>