<?xml version="1.0" encoding="utf-8"?>
<svg version="1.1" xmlns:xlink="http://www.w3.org/1999/xlink" width="16px" height="16px" viewBox="843 535.5  16 16" xmlns="http://www.w3.org/2000/svg">
  <path d="M 851 535.5  C 855.48 535.5  859 539.02  859 543.5  C 859 547.98  855.48 551.5  851 551.5  C 846.52 551.5  843 547.98  843 543.5  C 843 539.02  846.52 535.5  851 535.5  Z " fill-rule="nonzero" fill="#ffffff" stroke="none" />
  <path d="M 851 536  C 855.2 536  858.5 539.3  858.5 543.5  C 858.5 547.7  855.2 551  851 551  C 846.8 551  843.5 547.7  843.5 543.5  C 843.5 539.3  846.8 536  851 536  Z " stroke-width="1" stroke="#8c8c8c" fill="none" />
  <path d="M 851 547.5  C 848.76 547.5  847 545.74  847 543.5  C 847 541.26  848.76 539.5  851 539.5  C 853.24 539.5  855 541.26  855 543.5  C 855 545.74  853.24 547.5  851 547.5  " fill-rule="nonzero" fill="#8c8c8c" stroke="none" />
</svg>