<?xml version="1.0" encoding="utf-8"?>
<svg version="1.1" xmlns:xlink="http://www.w3.org/1999/xlink" width="16px" height="16px" viewBox="715 646.5  16 16" xmlns="http://www.w3.org/2000/svg">
  <path d="M 723 646.5  C 727.48 646.5  731 650.02  731 654.5  C 731 658.98  727.48 662.5  723 662.5  C 718.52 662.5  715 658.98  715 654.5  C 715 650.02  718.52 646.5  723 646.5  Z " fill-rule="nonzero" fill="#f0f0f0" stroke="none" />
  <path d="M 723 647  C 727.2 647  730.5 650.3  730.5 654.5  C 730.5 658.7  727.2 662  723 662  C 718.8 662  715.5 658.7  715.5 654.5  C 715.5 650.3  718.8 647  723 647  Z " stroke-width="1" stroke="#8c8c8c" fill="none" />
  <path d="M 723 658.5  C 720.76 658.5  719 656.74  719 654.5  C 719 652.26  720.76 650.5  723 650.5  C 725.24 650.5  727 652.26  727 654.5  C 727 656.74  725.24 658.5  723 658.5  " fill-rule="nonzero" fill="#8c8c8c" stroke="none" />
</svg>