<?xml version="1.0" encoding="utf-8"?>
<svg version="1.1" xmlns:xlink="http://www.w3.org/1999/xlink" width="16px" height="16px" viewBox="713 535.5  16 16" xmlns="http://www.w3.org/2000/svg">
  <path d="M 721 535.5  C 725.48 535.5  729 539.02  729 543.5  C 729 547.98  725.48 551.5  721 551.5  C 716.52 551.5  713 547.98  713 543.5  C 713 539.02  716.52 535.5  721 535.5  Z " fill-rule="nonzero" fill="#f0f0f0" stroke="none" />
  <path d="M 721 536  C 725.2 536  728.5 539.3  728.5 543.5  C 728.5 547.7  725.2 551  721 551  C 716.8 551  713.5 547.7  713.5 543.5  C 713.5 539.3  716.8 536  721 536  Z " stroke-width="1" stroke="#8c8c8c" fill="none" />
  <path d="M 721 547.5  C 718.76 547.5  717 545.74  717 543.5  C 717 541.26  718.76 539.5  721 539.5  C 723.24 539.5  725 541.26  725 543.5  C 725 545.74  723.24 547.5  721 547.5  " fill-rule="nonzero" fill="#8c8c8c" stroke="none" />
</svg>