<?xml version="1.0" encoding="utf-8"?>
<svg version="1.1" xmlns:xlink="http://www.w3.org/1999/xlink" width="16px" height="16px" viewBox="782 765.5  16 16" xmlns="http://www.w3.org/2000/svg">
  <path d="M 790 765.5  C 794.48 765.5  798 769.02  798 773.5  C 798 777.98  794.48 781.5  790 781.5  C 785.52 781.5  782 777.98  782 773.5  C 782 769.02  785.52 765.5  790 765.5  Z " fill-rule="nonzero" fill="#ffffff" stroke="none" />
  <path d="M 790 766  C 794.2 766  797.5 769.3  797.5 773.5  C 797.5 777.7  794.2 781  790 781  C 785.8 781  782.5 777.7  782.5 773.5  C 782.5 769.3  785.8 766  790 766  Z " stroke-width="1" stroke="#8c8c8c" fill="none" />
  <path d="M 790 777.5  C 787.76 777.5  786 775.74  786 773.5  C 786 771.26  787.76 769.5  790 769.5  C 792.24 769.5  794 771.26  794 773.5  C 794 775.74  792.24 777.5  790 777.5  " fill-rule="nonzero" fill="#8c8c8c" stroke="none" />
</svg>