<?xml version="1.0" encoding="utf-8"?>
<svg version="1.1" xmlns:xlink="http://www.w3.org/1999/xlink" width="100px" height="100px" xmlns="http://www.w3.org/2000/svg">
  <g transform="matrix(1 0 0 1 -418 -9 )">
    <path d="M 468 9  C 496 9  518 31  518 59  C 518 87  496 109  468 109  C 440 109  418 87  418 59  C 418 31  440 9  468 9  Z " fill-rule="nonzero" fill="#aaaaaa" stroke="none" />
    <path d="M 468 9.5  C 495.72 9.5  517.5 31.28  517.5 59  C 517.5 86.72  495.72 108.5  468 108.5  C 440.28 108.5  418.5 86.72  418.5 59  C 418.5 31.28  440.28 9.5  468 9.5  Z " stroke-width="1" stroke="#aaaaaa" fill="none" />
  </g>
</svg>