<?xml version="1.0" encoding="utf-8"?>
<svg version="1.1" xmlns:xlink="http://www.w3.org/1999/xlink" width="48px" height="59px" xmlns="http://www.w3.org/2000/svg">
  <g transform="matrix(1 0 0 1 -324 -2178 )">
    <path d="M 47.3804347826087 46.9827008928571  C 47.7934782608696 47.3997395833333  48 47.8936011904762  48 48.4642857142857  C 48 49.0349702380952  47.7934782608696 49.5288318452381  47.3804347826087 49.9458705357143  C 46.9673913043478 50.3629092261905  46.4782608695652 50.5714285714286  45.9130434782609 50  L 30.8478260869565 50  C 30.8695652173913 50.9445684523809  30.9347826086957 51.9048549107143  31.0434782608696 53.4522879464286  C 31.1521739130435 54.9997209821429  31.2065217391304 56.1904761904762  31.2065217391304 57.0245535714286  C 31.2065217391304 57.5732886904762  31.0108695652174 58.0397135416667  30.6195652173913 58.423828125  C 30.2282608695652 58.8079427083333  29.7608695652174 59  29.2173913043478 59  L 18.7826086956522 59  C 18.2391304347826 59  17.7717391304348 58.8079427083333  17.3804347826087 58.423828125  C 16.9891304347826 58.0397135416667  16.7934782608696 57.5732886904762  16.7934782608696 57.0245535714286  C 16.7934782608696 56.1904761904762  16.8478260869565 54.9997209821429  16.9565217391304 53.4522879464286  C 17.0652173913044 51.9048549107143  17.1304347826087 50.9445684523809  17.1521739130435 50  L 2.08695652173913 50  C 1.52173913043478 50.5714285714286  1.03260869565217 50.3629092261905  0.619565217391304 49.9458705357143  C 0.206521739130435 49.5288318452381  0 49.0349702380952  0 48.4642857142857  C 0 47.8936011904762  0.206521739130435 47.3997395833333  0.619565217391304 46.9827008928571  L 13.7282608695652 33.7142857142857  L 6.26086956521739 33.7142857142857  C 5.69565217391304 33.7142857142857  5.20652173913044 33.5057663690476  4.79347826086957 33.0887276785714  C 4.3804347826087 32.6716889880952  4.17391304347826 32.1778273809524  4.17391304347826 31.6071428571429  C 4.17391304347826 31.0364583333333  4.3804347826087 30.5425967261905  4.79347826086957 30.1255580357143  L 17.9021739130435 16.8571428571429  L 11.4782608695652 16.8571428571429  C 10.9130434782609 16.8571428571429  10.4239130434783 16.6486235119048  10.0108695652174 16.2315848214286  C 9.59782608695652 15.8145461309524  9.39130434782609 15.3206845238095  9.39130434782609 14.75  C 9.39130434782609 14.1793154761905  9.59782608695652 13.6854538690476  10.0108695652174 13.2684151785714  L 22.5326086956522 0.625558035714288  C 22.945652173913 0.2085193452381  23.4347826086957 0  24 0  C 24.5652173913043 0  25.054347826087 0.2085193452381  25.4673913043478 0.625558035714288  L 37.9891304347826 13.2684151785714  C 38.4021739130435 13.6854538690476  38.6086956521739 14.1793154761905  38.6086956521739 14.75  C 38.6086956521739 15.3206845238095  38.4021739130435 15.8145461309524  37.9891304347826 16.2315848214286  C 37.5760869565217 16.6486235119048  37.0869565217391 16.8571428571429  36.5217391304348 16.8571428571429  L 30.0978260869565 16.8571428571429  L 43.2065217391304 30.1255580357143  C 43.6195652173913 30.5425967261905  43.8260869565217 31.0364583333333  43.8260869565217 31.6071428571429  C 43.8260869565217 32.1778273809524  43.6195652173913 32.6716889880952  43.2065217391304 33.0887276785714  C 42.7934782608696 33.5057663690476  42.304347826087 33.7142857142857  41.7391304347826 33.7142857142857  L 34.2717391304348 33.7142857142857  L 47.3804347826087 46.9827008928571  Z " fill-rule="nonzero" fill="#d7d7d7" stroke="none" transform="matrix(1 0 0 1 324 2178 )" />
  </g>
</svg>