<?xml version="1.0" encoding="utf-8"?>
<svg version="1.1" xmlns:xlink="http://www.w3.org/1999/xlink" width="50px" height="50px" xmlns="http://www.w3.org/2000/svg">
  <g transform="matrix(1 0 0 1 -1246 -2256 )">
    <path d="M 26.2555803571429 8.4740990990991  C 26.6090029761905 8.11749249249249  26.7857142857143 7.69519519519519  26.7857142857143 7.20720720720721  C 26.7857142857143 6.71921921921921  26.6090029761905 6.29692192192192  26.2555803571429 5.94031531531531  C 25.9021577380952 5.58370870870871  25.483630952381 5.40540540540541  25 5.40540540540541  C 24.5163690476191 5.40540540540541  24.0978422619048 5.58370870870871  23.7444196428571 5.94031531531531  C 23.3909970238095 6.29692192192192  23.2142857142857 6.71921921921921  23.2142857142857 7.20720720720721  C 23.2142857142857 7.69519519519519  23.3909970238095 8.11749249249249  23.7444196428571 8.4740990990991  C 24.0978422619048 8.8307057057057  24.5163690476191 9.00900900900901  25 9.00900900900901  C 25.483630952381 9.00900900900901  25.9021577380952 8.8307057057057  26.2555803571429 8.4740990990991  Z M 49.7488839285714 32.6858108108108  C 49.9162946428571 32.8547297297297  50 33.0705705705706  50 33.3333333333333  L 50 43.2432432432432  C 50 43.6561561561562  49.8139880952381 43.9376876876877  49.4419642857143 44.0878378378378  C 49.2931547619048 44.1253753753754  49.1815476190476 44.1441441441441  49.1071428571429 44.1441441441441  C 48.8839285714286 44.1441441441441  48.6700148809524 44.0596846846847  48.4654017857143 43.8907657657658  L 45.8705357142857 41.2725225225225  C 43.6569940476191 43.9564564564565  40.6947544642857 46.0820195195195  36.9838169642857 47.6492117117117  C 33.2728794642857 49.2164039039039  29.2782738095238 50  25 50  C 20.7217261904762 50  16.7271205357143 49.2164039039039  13.0161830357143 47.6492117117117  C 9.30524553571429 46.0820195195195  6.34300595238095 43.9564564564565  4.12946428571429 41.2725225225225  L 1.53459821428571 43.8907657657658  C 1.3671875 44.0596846846847  1.15327380952381 44.1441441441441  0.892857142857143 44.1441441441441  C 0.818452380952381 44.1441441441441  0.706845238095238 44.1253753753754  0.558035714285714 44.0878378378378  C 0.186011904761905 43.9376876876877  0 43.6561561561562  0 43.2432432432432  L 0 33.3333333333333  C 0 33.0705705705706  0.0837053571428571 32.8547297297297  0.251116071428571 32.6858108108108  C 0.418526785714286 32.5168918918919  0.632440476190476 32.4324324324324  0.892857142857143 32.4324324324324  L 10.7142857142857 32.4324324324324  C 11.1235119047619 32.4324324324324  11.4025297619048 32.6201201201201  11.5513392857143 32.9954954954955  C 11.7001488095238 33.3521021021021  11.6350446428571 33.6805555555556  11.3560267857143 33.9808558558559  L 8.56584821428571 36.7961711711712  C 9.81212797619048 38.5041291291291  11.5745907738095 39.9446321321321  13.8532366071429 41.1176801801802  C 16.1318824404762 42.2907282282282  18.6569940476191 43.0649399399399  22 43.4403153153153  L 22 25.2252252252252  L 16.0714285714286 25.2252252252252  C 15.5877976190476 25.2252252252252  15.1692708333333 25.0469219219219  14.8158482142857 24.6903153153153  C 14.4624255952381 24.3337087087087  14.2857142857143 23.9114114114114  14.2857142857143 23.4234234234234  L 14.2857142857143 19.8198198198198  C 14.2857142857143 19.3318318318318  14.4624255952381 18.9095345345345  14.8158482142857 18.5529279279279  C 15.1692708333333 18.1963213213213  15.5877976190476 18.018018018018  16.0714285714286 18.018018018018  L 21.4285714285714 18.018018018018  L 21.4285714285714 13.4290540540541  C 20.3497023809524 12.7909159159159  19.4847470238095 11.9228603603604  18.8337053571429 10.8248873873874  C 18.1826636904762 9.72691441441442  17.8571428571429 8.52102102102102  17.8571428571429 7.20720720720721  C 17.8571428571429 5.21771771771772  18.5546875 3.51914414414414  19.9497767857143 2.11148648648649  C 21.3448660714286 0.703828828828829  23.0282738095238 0  25 0  C 26.9717261904762 0  28.6551339285714 0.703828828828829  30.0502232142857 2.11148648648649  C 31.4453125 3.51914414414414  32.1428571428571 5.21771771771772  32.1428571428571 7.20720720720721  C 32.1428571428571 8.52102102102102  31.8173363095238 9.72691441441442  31.1662946428571 10.8248873873874  C 30.5152529761905 11.9228603603604  29.6502976190476 12.7909159159159  28.5714285714286 13.4290540540541  L 28.5714285714286 18.018018018018  L 33.9285714285714 18.018018018018  C 34.4122023809524 18.018018018018  34.8307291666667 18.1963213213213  35.1841517857143 18.5529279279279  C 35.5375744047619 18.9095345345345  35.7142857142857 19.3318318318318  35.7142857142857 19.8198198198198  L 35.7142857142857 23.4234234234234  C 35.7142857142857 23.9114114114114  35.5375744047619 24.3337087087087  35.1841517857143 24.6903153153153  C 34.8307291666667 25.0469219219219  34.4122023809524 25.2252252252252  33.9285714285714 25.2252252252252  L 28 25.2252252252252  L 28 43.4403153153153  C 31.343005952381 43.0649399399399  33.8681175595238 42.2907282282282  36.1467633928571 41.1176801801802  C 38.4254092261905 39.9446321321321  40.1878720238095 38.5041291291291  41.4341517857143 36.7961711711712  L 38.6439732142857 33.9808558558559  C 38.3649553571429 33.6805555555556  38.2998511904762 33.3521021021021  38.4486607142857 32.9954954954955  C 38.5974702380952 32.6201201201201  38.8764880952381 32.4324324324324  39.2857142857143 32.4324324324324  L 49.1071428571429 32.4324324324324  C 49.3675595238095 32.4324324324324  49.5814732142857 32.5168918918919  49.7488839285714 32.6858108108108  Z " fill-rule="nonzero" fill="#ffffff" stroke="none" transform="matrix(1 0 0 1 1246 2256 )" />
  </g>
</svg>