<?xml version="1.0" encoding="utf-8"?>
<svg version="1.1" xmlns:xlink="http://www.w3.org/1999/xlink" width="108px" height="32px" xmlns="http://www.w3.org/2000/svg">
  <defs>
    <mask fill="white" id="clip32">
      <path d="M 0 28  L 0 4  C 0 1.76000000000001  1.48499999999999 0  3.375 0  L 104.625 0  C 106.515 0  108 1.76000000000001  108 4  L 108 28  C 108 30.24  106.515 32  104.625 32  L 85.6278409090909 32  L 3.375 32  C 1.48499999999999 32  0 30.24  0 28  Z " fill-rule="evenodd" />
    </mask>
  </defs>
  <g transform="matrix(1 0 0 1 -927 -1056 )">
    <path d="M 0 28  L 0 4  C 0 1.76000000000001  1.48499999999999 0  3.375 0  L 104.625 0  C 106.515 0  108 1.76000000000001  108 4  L 108 28  C 108 30.24  106.515 32  104.625 32  L 85.6278409090909 32  L 3.375 32  C 1.48499999999999 32  0 30.24  0 28  Z " fill-rule="nonzero" fill="#ffffff" stroke="none" transform="matrix(1 0 0 1 927 1056 )" />
    <path d="M 0 28  L 0 4  C 0 1.76000000000001  1.48499999999999 0  3.375 0  L 104.625 0  C 106.515 0  108 1.76000000000001  108 4  L 108 28  C 108 30.24  106.515 32  104.625 32  L 85.6278409090909 32  L 3.375 32  C 1.48499999999999 32  0 30.24  0 28  Z " stroke-width="2" stroke="#d9d9d9" fill="none" transform="matrix(1 0 0 1 927 1056 )" mask="url(#clip32)" />
  </g>
</svg>