<?xml version="1.0" encoding="utf-8"?>
<svg version="1.1" xmlns:xlink="http://www.w3.org/1999/xlink" width="1457px" height="32px" xmlns="http://www.w3.org/2000/svg">
  <g transform="matrix(1 0 0 1 -361 -1114 )">
    <path d="M 362 1118  A 3 3 0 0 1 365 1115 L 1814 1115  A 3 3 0 0 1 1817 1118 L 1817 1142  A 3 3 0 0 1 1814 1145 L 365 1145  A 3 3 0 0 1 362 1142 L 362 1118  Z " fill-rule="nonzero" fill="#ffffff" stroke="none" />
    <path d="M 361.5 1118  A 3.5 3.5 0 0 1 365 1114.5 L 1814 1114.5  A 3.5 3.5 0 0 1 1817.5 1118 L 1817.5 1142  A 3.5 3.5 0 0 1 1814 1145.5 L 365 1145.5  A 3.5 3.5 0 0 1 361.5 1142 L 361.5 1118  Z " stroke-width="1" stroke-dasharray="9,4" stroke="#d9d9d9" fill="none" stroke-dashoffset="0.5" />
  </g>
</svg>