<?xml version="1.0" encoding="utf-8"?>
<svg version="1.1" xmlns:xlink="http://www.w3.org/1999/xlink" width="1269px" height="32px" xmlns="http://www.w3.org/2000/svg">
  <g transform="matrix(1 0 0 1 -361 -872 )">
    <path d="M 362 876  A 3 3 0 0 1 365 873 L 1626 873  A 3 3 0 0 1 1629 876 L 1629 900  A 3 3 0 0 1 1626 903 L 365 903  A 3 3 0 0 1 362 900 L 362 876  Z " fill-rule="nonzero" fill="#ffffff" stroke="none" />
    <path d="M 361.5 876  A 3.5 3.5 0 0 1 365 872.5 L 1626 872.5  A 3.5 3.5 0 0 1 1629.5 876 L 1629.5 900  A 3.5 3.5 0 0 1 1626 903.5 L 365 903.5  A 3.5 3.5 0 0 1 361.5 900 L 361.5 876  Z " stroke-width="1" stroke-dasharray="9,4" stroke="#d9d9d9" fill="none" stroke-dashoffset="0.5" />
  </g>
</svg>